<mxfile host="65bd71144e">
    <diagram id="pIaEtrtLPv3HG8r1JEND" name="Page-1">
        <mxGraphModel dx="690" dy="526" grid="1" gridSize="10" guides="1" tooltips="1" connect="1" arrows="1" fold="1" page="1" pageScale="1" pageWidth="850" pageHeight="1100" math="0" shadow="0">
            <root>
                <mxCell id="0"/>
                <mxCell id="1" parent="0"/>
                <mxCell id="2" value="" style="rounded=0;whiteSpace=wrap;html=1;" parent="1" vertex="1">
                    <mxGeometry x="80" y="80" width="570" height="360" as="geometry"/>
                </mxCell>
                <mxCell id="3" value="volume of a sphere with JS" style="rounded=0;whiteSpace=wrap;html=1;" parent="1" vertex="1">
                    <mxGeometry x="80" y="80" width="570" height="40" as="geometry"/>
                </mxCell>
                <mxCell id="6" value="Calculate" style="labelPosition=center;verticalLabelPosition=middle;align=center;html=1;shape=mxgraph.basic.button;dx=10;" parent="1" vertex="1">
                    <mxGeometry x="110" y="360" width="80" height="30" as="geometry"/>
                </mxCell>
                <mxCell id="7" value="" style="ellipse;whiteSpace=wrap;html=1;aspect=fixed;" vertex="1" parent="1">
                    <mxGeometry x="110" y="200" width="80" height="80" as="geometry"/>
                </mxCell>
                <mxCell id="8" value="" style="rounded=0;whiteSpace=wrap;html=1;" vertex="1" parent="1">
                    <mxGeometry x="100" y="310" width="150" height="20" as="geometry"/>
                </mxCell>
                <mxCell id="10" value="V=(4)(pi)(R)" style="text;html=1;strokeColor=none;fillColor=none;align=center;verticalAlign=middle;whiteSpace=wrap;rounded=0;" vertex="1" parent="1">
                    <mxGeometry x="110" y="150" width="70" height="30" as="geometry"/>
                </mxCell>
            </root>
        </mxGraphModel>
    </diagram>
</mxfile>